<svg width="114" height="50" viewBox="0 0 114 50" fill="none" xmlns="http://www.w3.org/2000/svg">
<mask id="mask0_17_38" style="mask-type:luminance" maskUnits="userSpaceOnUse" x="0" y="0" width="114" height="50">
<path d="M114 0H0V50H114V0Z" fill="white"/>
</mask>
<g mask="url(#mask0_17_38)">
<path d="M40.5 29.8158C38.7 29.8158 37 30.8404 36 32.3772C33.5 36.5781 29.1 39.3445 24.1 39.3445C16.2 39.3445 9.89998 32.5822 10.2 24.3854C10.5 17.1108 16.2 11.0658 23.3 10.6559C28.7 10.3486 33.4 13.2174 36 17.6231C36.9 19.2625 38.6 20.1846 40.4 20.1846H40.5C44.4 20.1846 46.9 15.7789 44.9 12.2953C44.4 11.3731 43.7 10.451 43.1 9.52888C38.7 3.58626 31.5 -0.204726 23.5 0.000191885C10.8 0.410028 0.499977 10.9633 -2.25529e-05 23.9756C-0.500023 38.2174 10.5 49.8977 24.2 49.8977C32 49.8977 38.8 46.2092 43.3 40.2666C43.9 39.4469 44.5 38.6272 45 37.8076C47 34.324 44.6 29.8158 40.5 29.8158Z" fill="#1836B2"/>
</g>
<mask id="mask1_17_38" style="mask-type:luminance" maskUnits="userSpaceOnUse" x="0" y="0" width="114" height="50">
<path d="M114 0H0V50H114V0Z" fill="white"/>
</mask>
<g mask="url(#mask1_17_38)">
<path d="M73.2 29.8156C71.4 29.8156 69.7 30.8402 68.7 32.377C66.3 36.5779 61.8 39.3443 56.9 39.3443C51.9 39.3443 47.5 36.5779 45 32.377C44 30.7377 42.4 29.8156 40.5 29.8156C36.5 29.8156 34 34.3238 36.1 37.9098C36.6 38.7295 37.1 39.5492 37.8 40.3689C42.2 46.3115 49.1 50 56.9 50C64.7 50 71.5 46.3115 76 40.3689C76.6 39.5492 77.2 38.7295 77.7 37.9098C79.8 34.3238 77.3 29.8156 73.2 29.8156ZM40.6 20.1844C42.4 20.1844 44 19.1598 45 17.623C47.5 13.5246 51.9 10.6557 57 10.6557C62 10.6557 66.5 13.4221 69 17.623C69.9 19.2623 71.6 20.1844 73.4 20.1844H73.6C77.5 20.1844 80 15.7787 78 12.2951C77.5 11.373 76.8 10.4508 76.2 9.52869C71.6 3.79098 64.6 0 57 0C49.2 0 42.4 3.68852 37.9 9.63115C37.3 10.4508 36.6 11.4754 36.1 12.3975C34.1 15.8811 36.6 20.2869 40.6 20.1844Z" fill="#F39711"/>
</g>
<mask id="mask2_17_38" style="mask-type:luminance" maskUnits="userSpaceOnUse" x="0" y="0" width="114" height="50">
<path d="M114 0H0V50H114V0Z" fill="white"/>
</mask>
<g mask="url(#mask2_17_38)">
<path d="M89.7 0C81.9 0 75.1 3.68852 70.6 9.63115C70 10.4508 69.3 11.4754 68.8 12.3975C66.8 15.8811 69.3 20.2869 73.2 20.2869H73.4C75.2 20.2869 76.8 19.2623 77.8 17.7254C80.4 13.3197 85.2 10.4508 90.5 10.7582C97.6 11.168 103.3 17.1107 103.6 24.4877C103.9 32.6844 97.5 39.4467 89.7 39.4467C84.7 39.4467 80.3 36.6803 77.8 32.4795C76.8 30.8402 75.2 29.918 73.3 29.918C69.3 29.918 66.8 34.4262 68.9 38.0123C69.4 38.832 70 39.6516 70.6 40.4713C75.2 46.4139 82.4 50.2049 90.4 50.1025C103.1 49.6926 113.4 39.1393 113.9 26.127C114.5 11.6803 103.4 0 89.7 0Z" fill="#51ADE5"/>
</g>
<mask id="mask3_17_38" style="mask-type:luminance" maskUnits="userSpaceOnUse" x="0" y="0" width="114" height="50">
<path d="M114 0H0V50H114V0Z" fill="white"/>
</mask>
<g mask="url(#mask3_17_38)">
<path d="M90.7 18.2377C92.1 18.2377 92.7999 18.9549 92.7999 20.3893V22.0287C92.7999 22.1311 92.6999 22.336 92.4999 22.336H90.8999C90.7999 22.336 90.6 22.2336 90.6 22.0287V20.7992C90.6 20.3893 90.3999 20.1844 89.9999 20.1844H89.2999C88.8999 20.1844 88.7 20.3893 88.7 20.7992V22.9508L92.2 24.1803C92.5 24.2828 92.6 24.4877 92.6 24.6926V28.1762C92.6 29.6106 91.8999 30.3279 90.4999 30.3279H88.7999C87.3999 30.3279 86.7 29.6106 86.7 28.1762V26.6393C86.7 26.4344 86.7999 26.332 86.9999 26.332H88.6C88.8 26.332 88.8999 26.4344 88.8999 26.6393V27.8688C88.8999 28.2787 89.0999 28.4836 89.4999 28.4836H90.2C90.6 28.4836 90.7999 28.2787 90.7999 27.8688V25.9221L87.2999 24.6926C86.9999 24.5901 86.8999 24.3852 86.8999 24.1803V20.4918C86.8999 19.0574 87.6999 18.3401 88.9999 18.3401L90.7 18.2377Z" fill="#51ADE5"/>
</g>
<mask id="mask4_17_38" style="mask-type:luminance" maskUnits="userSpaceOnUse" x="0" y="0" width="114" height="50">
<path d="M114 0H0V50H114V0Z" fill="white"/>
</mask>
<g mask="url(#mask4_17_38)">
<path d="M60.8 18.3402C61 18.3402 61.1 18.4426 61.1 18.6475L59.8 30.2254C59.8 30.4303 59.7 30.5328 59.5 30.5328H58.1C57.9 30.5328 57.8 30.4303 57.8 30.2254L56.3 23.3607L54.7001 30.3279C54.6001 30.5328 54.6 30.6352 54.4 30.6352H52.8C52.6 30.6352 52.5 30.5328 52.5 30.3279L51.3 18.6475C51.3 18.4426 51.4 18.3402 51.6 18.3402H53C53.2 18.3402 53.3 18.4426 53.3 18.6475L53.9 25.8197H54L55.5 18.6475C55.6 18.4426 55.6 18.3402 55.8 18.3402H56.7001C56.9001 18.3402 57 18.4426 57 18.6475L58.4 25.8197H58.5L59.1 18.75C59.1 18.5451 59.2 18.4426 59.4 18.4426L60.8 18.3402Z" fill="#F39711"/>
</g>
<mask id="mask5_17_38" style="mask-type:luminance" maskUnits="userSpaceOnUse" x="0" y="0" width="114" height="50">
<path d="M114 0H0V50H114V0Z" fill="white"/>
</mask>
<g mask="url(#mask5_17_38)">
<path d="M27.6 20.0819C27.6 20.1844 27.5 20.3893 27.3 20.3893H23.6V23.4631H26.4C26.5 23.4631 26.7 23.5656 26.7 23.7705V25.3074C26.7 25.5123 26.6 25.6147 26.4 25.6147H23.6V30.4303C23.6 30.5328 23.5 30.7377 23.3 30.7377H21.8C21.6 30.7377 21.5 30.6352 21.5 30.4303V18.5451C21.5 18.4426 21.6 18.2377 21.8 18.2377H27.2C27.3 18.2377 27.5 18.3401 27.5 18.5451L27.6 20.0819Z" fill="#1836B2"/>
</g>
<mask id="mask6_17_38" style="mask-type:luminance" maskUnits="userSpaceOnUse" x="0" y="0" width="114" height="50">
<path d="M114 0H0V50H114V0Z" fill="white"/>
</mask>
<g mask="url(#mask6_17_38)">
<path d="M37.9 9.52869C37.3 10.3484 36.6 11.373 36.1 12.3975C35.5 13.627 35.2 15.0615 35.5 16.3934C35.8 17.623 36.6 18.75 37.6 19.4672C38.8 20.2869 40.2 20.5943 41.6 20.2869C42.9 19.9795 44.1 19.1598 44.8 18.1352C45 17.8279 45.2 17.5205 45.3 17.2131C45.9 15.8811 45.8 14.3443 45.2 13.0123C45.1 12.8074 45 12.7049 44.9 12.5C44.4 11.6803 43.7 10.6557 43.1 9.73361C42.3 8.70902 41.4 7.68443 40.4 6.65984C39.7 7.47951 38.8 8.40164 37.9 9.52869Z" fill="#00000A"/>
</g>
<mask id="mask7_17_38" style="mask-type:luminance" maskUnits="userSpaceOnUse" x="0" y="0" width="114" height="50">
<path d="M114 0H0V50H114V0Z" fill="white"/>
</mask>
<g mask="url(#mask7_17_38)">
<path d="M43.2 40.4713C43.8 39.6516 44.4 38.832 44.9 38.0123C46.2 35.7582 45.6 32.7869 43.8 31.0451C42.1 29.4057 39.4 29.2008 37.5 30.7377C35.3 32.377 34.5 35.6557 36 38.1147C36.5 38.9344 37 39.7541 37.7 40.5738C38.5 41.5983 39.4 42.6229 40.5 43.5451C41.3 42.5205 42.2 41.4959 43.2 40.4713Z" fill="#00000A"/>
</g>
<mask id="mask8_17_38" style="mask-type:luminance" maskUnits="userSpaceOnUse" x="0" y="0" width="114" height="50">
<path d="M114 0H0V50H114V0Z" fill="white"/>
</mask>
<g mask="url(#mask8_17_38)">
<path d="M76.1 40.3688C76.7 39.5492 77.4 38.7295 77.9 37.9098C78.7 36.6803 78.9 35.041 78.5 33.6066C78.1 32.1721 77.1 31.0451 75.8 30.3279C74 29.4057 71.8 29.6106 70.1 30.8402C68.8 31.7623 67.9 33.2992 67.8 34.9385C67.7 36.0656 68 37.0902 68.6 38.0123C69.1 38.832 69.8 39.6516 70.4 40.4713C71.2 41.4959 72.2 42.5205 73.2 43.4426C74.3 42.418 75.3 41.3934 76.1 40.3688Z" fill="#06400B"/>
</g>
</svg>
