<?xml version="1.0" standalone="no"?>
<!DOCTYPE svg PUBLIC "-//W3C//DTD SVG 20010904//EN"
 "http://www.w3.org/TR/2001/REC-SVG-20010904/DTD/svg10.dtd">
<svg version="1.0" xmlns="http://www.w3.org/2000/svg"
 width="512.000000pt" height="512.000000pt" viewBox="0 0 512.000000 512.000000"
 preserveAspectRatio="xMidYMid meet">
<metadata>
Created by potrace 1.14, written by Peter Selinger 2001-2017
</metadata>
<g transform="translate(0.000000,512.000000) scale(0.100000,-0.100000)"
fill="#000000" stroke="none">
<path d="M910 3665 c-108 -22 -119 -25 -188 -51 -364 -137 -637 -469 -707
-861 -19 -108 -16 -307 7 -418 21 -100 68 -236 106 -305 56 -101 44 -82 120
-180 245 -315 650 -467 1043 -390 181 35 342 113 487 233 l42 36 38 -35 c45
-42 149 -112 220 -148 60 -31 213 -83 263 -91 19 -2 59 -8 89 -13 169 -25 395
10 567 88 69 32 205 119 262 169 l35 30 36 -32 c61 -53 74 -63 151 -109 92
-56 228 -111 334 -134 122 -27 342 -24 460 5 202 52 355 140 506 290 134 135
212 257 272 426 68 195 80 441 32 655 -80 353 -362 670 -700 788 -116 41 -197
55 -335 57 -184 4 -320 -24 -480 -98 -82 -38 -236 -145 -262 -182 -4 -5 -23 3
-45 21 -177 142 -354 222 -553 252 -58 9 -262 9 -320 0 -177 -28 -427 -146
-525 -248 -34 -36 -42 -37 -76 -7 -134 115 -284 193 -456 238 -99 25 -328 33
-423 14z m380 -502 c131 -49 228 -129 317 -260 56 -83 81 -105 143 -126 104
-35 226 15 275 113 26 51 100 136 159 180 151 114 339 155 518 114 155 -36
319 -157 382 -282 60 -118 186 -164 304 -111 62 28 77 42 127 119 90 137 204
222 354 264 313 87 631 -86 750 -409 28 -76 41 -239 26 -320 -61 -318 -323
-542 -628 -534 -116 3 -203 29 -315 93 -58 34 -150 127 -180 184 -54 102 -133
155 -227 154 -93 -1 -191 -63 -231 -147 -15 -32 -91 -116 -143 -158 -39 -31
-144 -85 -191 -97 -73 -20 -82 -21 -158 -24 -206 -9 -420 106 -536 287 -74
115 -171 163 -273 135 -57 -16 -107 -56 -153 -125 -124 -182 -304 -290 -497
-298 -363 -14 -654 275 -654 650 0 61 2 73 22 160 41 173 169 332 334 413 74
37 123 51 200 58 33 4 61 7 62 8 9 8 160 -21 213 -41z"/>
<path d="M968 2853 c-4 -7 -3 -505 1 -540 1 -8 17 -13 46 -13 l45 0 0 115 0
115 70 0 70 0 0 38 c0 54 -7 60 -78 58 l-63 -1 3 69 3 70 85 0 85 1 0 45 0 45
-132 3 c-72 1 -133 -1 -135 -5z"/>
<path d="M2309 2846 c-2 -16 6 -111 17 -216 11 -103 13 -128 20 -200 7 -83 10
-106 18 -118 4 -7 40 -8 82 -3 6 0 16 25 23 54 6 28 22 99 35 157 l23 105 11
-40 c6 -22 13 -51 16 -65 9 -51 37 -176 42 -193 5 -14 14 -17 47 -15 l42 3 12
105 c6 58 14 134 18 170 4 36 8 67 10 70 2 3 6 49 10 103 l7 99 -37 -6 c-21
-4 -41 -8 -45 -11 -4 -3 -11 -53 -16 -112 -4 -60 -8 -112 -9 -118 -1 -5 -3
-28 -4 -50 -3 -59 -15 -24 -42 125 -29 163 -31 167 -66 166 -26 -1 -29 -5 -40
-61 -7 -33 -15 -71 -18 -85 -3 -14 -8 -38 -11 -55 -14 -77 -32 -139 -34 -115
-1 14 -4 39 -5 55 -2 17 -6 68 -10 115 -4 47 -8 94 -10 105 -1 11 -3 25 -4 31
-1 14 -81 15 -82 0z"/>
<path d="M3948 2844 c-14 -7 -30 -26 -36 -41 -10 -27 -14 -195 -6 -218 3 -6
42 -24 88 -40 l83 -29 -1 -55 c-1 -60 -11 -69 -62 -57 -22 6 -25 11 -21 46 4
44 -4 50 -60 48 -38 -1 -44 -13 -38 -80 7 -85 30 -101 142 -100 69 0 91 8 107
41 19 35 21 215 3 228 -6 5 -46 22 -88 37 l-76 27 2 54 c1 59 4 65 32 69 34 6
52 -12 55 -56 3 -40 5 -42 33 -41 73 2 68 -4 63 72 -7 95 -19 106 -118 107
-46 1 -87 -4 -102 -12z"/>
</g>
</svg>
